<svg xmlns="http://www.w3.org/2000/svg" width="600" height="173" viewBox="0 0 600 173" version="1.1">
	<path d="M 513.500 36.087 C 506.900 36.528, 485.075 37.817, 465 38.952 C 444.925 40.086, 401.050 42.578, 367.500 44.488 C 333.950 46.398, 297.950 48.428, 287.500 48.998 C 277.050 49.568, 261.075 50.468, 252 50.998 C 242.925 51.527, 221.550 52.646, 204.500 53.484 C 187.450 54.321, 171.475 55.238, 169 55.522 C 166.525 55.805, 150.100 56.709, 132.500 57.532 C 114.900 58.354, 95.325 59.271, 89 59.569 C 82.675 59.867, 76.962 60.287, 76.305 60.503 C 75.648 60.718, 74.810 62.494, 74.444 64.447 C 74.055 66.523, 73.191 68, 72.367 68 C 70.773 68, 69.892 69.914, 67.532 78.500 C 66.625 81.800, 65.444 85.306, 64.908 86.291 C 64.371 87.276, 64.199 88.513, 64.525 89.041 C 64.851 89.568, 64.529 89.989, 63.809 89.975 C 63.089 89.961, 59.350 86.960, 55.500 83.307 C 51.650 79.653, 46.925 75.876, 45 74.914 C 40.495 72.661, 39.311 73.647, 36.051 82.364 C 32.737 91.224, 31.355 91.752, 20.189 88.420 C 7.840 84.735, 7.435 84.633, 8.087 85.356 C 8.916 86.276, 32.832 95, 34.525 95 C 35.335 95, 36.375 93.211, 36.997 90.750 C 38.669 84.131, 41.080 78, 42.011 78 C 42.477 78, 43.452 78.583, 44.179 79.296 C 47.231 82.288, 66.133 95.200, 66.672 94.661 C 66.996 94.338, 68.296 89.788, 69.562 84.551 C 70.828 79.314, 72.125 74.607, 72.444 74.091 C 72.762 73.576, 74.341 72.864, 75.953 72.510 C 78.348 71.984, 78.940 71.285, 79.192 68.683 L 79.500 65.500 92.500 64.738 C 182.755 59.445, 504.235 40.962, 509.500 40.764 L 516.500 40.500 519.577 61.743 C 521.269 73.427, 522.895 83.229, 523.191 83.525 C 523.488 83.821, 531.096 77.299, 540.098 69.032 C 549.101 60.764, 556.924 54.039, 557.483 54.087 C 558.377 54.163, 565.892 62.108, 586.191 84.433 L 591.881 90.692 559.403 103.037 C 527.456 115.180, 526.933 115.424, 527.432 117.941 C 528.508 123.378, 534.111 164.220, 533.814 164.465 C 533.570 164.667, 246.735 140.796, 122.723 130.253 L 100.945 128.402 93.482 133.331 C 88.206 136.816, 85.650 137.974, 84.759 137.284 C 84.067 136.747, 76.922 131.064, 68.882 124.654 C 60.842 118.244, 53.930 113, 53.521 113 C 53.112 113, 50.628 114.800, 48 117 C 45.372 119.200, 42.839 121, 42.371 121 C 41.902 121, 33.190 112.719, 23.010 102.598 C 4.252 83.950, -0.009 80.724, 0.009 85.183 C 0.016 86.878, 5.363 92.667, 19.928 106.750 C 30.879 117.338, 40.233 126, 40.716 126 C 41.199 126, 43.352 124.200, 45.500 122 C 47.648 119.800, 49.916 118, 50.538 118 C 51.161 118, 59.957 124.292, 70.085 131.983 C 80.213 139.674, 88.984 145.974, 89.575 145.983 C 90.167 145.992, 93.026 143.073, 95.928 139.495 C 98.831 135.918, 101.577 132.762, 102.030 132.481 C 102.484 132.201, 125.050 133.787, 152.177 136.005 C 249.271 143.944, 322.691 149.986, 334 150.967 C 347.165 152.109, 349.122 152.270, 432 159.052 C 465.825 161.820, 503.829 164.949, 516.454 166.005 C 529.078 167.062, 539.594 167.739, 539.822 167.511 C 540.050 167.283, 538.640 155.956, 536.688 142.341 C 534.736 128.725, 533.341 117.257, 533.589 116.855 C 534.035 116.134, 556.086 107.358, 583.749 96.891 C 591.585 93.926, 597.989 91.275, 597.979 91 C 597.935 89.760, 558.611 48.500, 557.474 48.500 C 556.771 48.500, 549.893 54.463, 542.189 61.750 C 534.486 69.038, 527.971 75, 527.711 75 C 527.451 75, 526.489 69.938, 525.574 63.750 C 524.659 57.563, 523.687 51.343, 523.415 49.930 C 522.974 47.638, 523.848 46.722, 531.460 41.498 C 536.157 38.275, 540 35.494, 540 35.319 C 540 34.820, 526.688 35.206, 513.500 36.087 M 295 56.626 C 184.725 62.338, 91.637 67.275, 88.137 67.597 L 81.774 68.183 82.397 72.078 C 83.019 75.970, 83.016 75.974, 79.134 76.595 L 75.249 77.216 72.468 87.858 C 70.938 93.711, 69.562 98.657, 69.411 98.849 C 69.259 99.042, 63.467 96.272, 56.540 92.696 L 43.946 86.193 42.640 89.346 C 41.922 91.081, 40.523 94.638, 39.531 97.250 C 38.540 99.862, 37.327 102, 36.836 102 C 36.345 102, 33.143 100.628, 29.721 98.951 L 23.500 95.902 32.500 104.411 C 37.450 109.091, 41.950 112.921, 42.500 112.922 C 43.050 112.923, 45.943 110.946, 48.928 108.530 C 55.297 103.374, 52.727 102.208, 70.893 118.500 C 77.638 124.550, 83.516 129.631, 83.954 129.792 C 84.392 129.952, 87.470 128.490, 90.793 126.542 C 94.922 124.122, 98.050 123.008, 100.668 123.026 C 102.776 123.041, 199.900 131.765, 316.500 142.412 C 433.100 153.060, 528.711 161.575, 528.968 161.334 C 529.582 160.761, 522.878 120.420, 521.909 118.852 C 521.370 117.980, 515.951 119.621, 502.189 124.825 C 484.337 131.575, 478.867 132.847, 474.871 131.180 C 473.636 130.664, 478.519 125.669, 495.085 110.500 C 509.347 97.440, 516.939 89.805, 516.963 88.498 C 516.984 87.397, 515.428 77.497, 513.506 66.498 C 511.584 55.499, 510.009 46.388, 510.006 46.250 C 509.990 45.591, 484.528 46.965, 295 56.626" stroke="none" fill="#000000" fill-rule="evenodd"/>
</svg>